<?xml version="1.0" standalone="no"?>
<!DOCTYPE svg PUBLIC "-//W3C//DTD SVG 20010904//EN"
 "http://www.w3.org/TR/2001/REC-SVG-20010904/DTD/svg10.dtd">
<svg version="1.0" xmlns="http://www.w3.org/2000/svg"
 width="70.000000pt" height="70.000000pt" viewBox="0 0 70.000000 70.000000"
 preserveAspectRatio="xMidYMid meet">
<metadata>
Created by potrace 1.11, written by Peter Selinger 2001-2013
</metadata>
<g transform="translate(0.000000,70.000000) scale(0.100000,-0.100000)"
fill="#000000" stroke="none">
<path d="M87 576 l-16 -35 45 -32 c25 -17 47 -29 49 -27 2 1 -11 31 -29 66
l-32 63 -17 -35z"/>
<path d="M570 551 c-17 -35 -29 -65 -27 -67 4 -4 87 53 87 60 0 2 -6 19 -14
37 l-14 33 -32 -63z"/>
<path d="M70 525 c0 -2 10 -25 22 -49 17 -36 41 -59 117 -112 53 -37 99 -72
102 -77 9 -13 25 -2 32 22 3 13 -4 25 -22 38 -189 138 -251 183 -251 178z"/>
<path d="M583 492 c-224 -161 -224 -161 -216 -190 3 -13 9 -22 13 -20 25 9
219 156 224 168 3 8 12 30 20 48 8 17 14 32 13 32 -1 -1 -25 -18 -54 -38z"/>
<path d="M130 397 c0 -2 9 -21 19 -44 26 -53 80 -93 125 -93 58 0 52 7 -69 91
-60 42 -75 51 -75 46z"/>
<path d="M477 337 c-47 -34 -86 -65 -86 -69 -2 -19 75 -6 110 17 33 23 79 98
67 110 -2 2 -43 -24 -91 -58z"/>
<path d="M332 248 c-24 -24 -5 -59 29 -51 23 6 26 48 3 57 -20 8 -18 8 -32 -6z"/>
<path d="M248 216 c-24 -17 -23 -33 2 -41 11 -3 20 -11 20 -16 0 -21 19 -7 29
23 16 44 -13 63 -51 34z"/>
<path d="M412 222 c-11 -8 -7 -72 5 -72 3 0 18 9 35 21 28 20 28 22 12 40 -18
21 -32 23 -52 11z"/>
<path d="M327 162 c-15 -9 -27 -19 -27 -22 0 -3 12 -13 27 -22 24 -14 29 -14
50 -1 13 8 23 19 23 23 0 4 -10 15 -23 23 -21 13 -26 13 -50 -1z"/>
</g>
</svg>
